<svg width="713" height="713" viewBox="0 0 713 713" fill="none" xmlns="http://www.w3.org/2000/svg">
<circle cx="356.5" cy="356.5" r="356.5" fill="#97E4FF"/>
<circle cx="356.5" cy="356.5" r="356.5" fill="#97E4FF"/>
<path fill-rule="evenodd" clip-rule="evenodd" d="M361.466 712.966L360.5 712L160 515.5L165 442.5L153 406L117 307L268 161.5L499.5 153L712.914 364.415C708.741 556 553.43 710.345 361.466 712.966Z" fill="#72B9D1"/>
<path d="M476.068 567.25C477.686 553.267 479.458 539.299 480.825 525.303C481.342 520.062 480.178 514.821 480.784 509.455C482.337 495.612 488.364 483.655 498.695 473.069C507.642 463.896 518.813 457.2 530.511 451.013C531.069 450.714 531.514 450.261 532.016 449.879C520.48 452.551 509.502 456.637 498.161 459.803C493.574 461.084 493.711 461.042 492.983 456.838C491.552 448.521 489.448 440.274 488.38 431.929C487.523 425.22 483.972 420.334 477.662 416.736C475.219 415.351 472.46 414.474 469.507 414.147C466.894 413.806 464.282 413.813 461.661 414.14C457.721 414.801 455.69 416.054 457.3 420.146C458.845 424.057 459.217 428.317 460.107 432.423C460.439 440.726 460.536 449.036 460.059 457.34C460.018 463.937 459.687 470.549 459.994 477.133C460.674 491.631 462.85 505.892 471.069 518.927C472.719 521.544 472.007 524.349 472.185 527.084C472.63 530.272 472.638 533.46 472.185 536.647C472.088 546.871 471.991 557.095 471.894 567.319C473.318 568.503 474.709 568.537 476.068 567.25Z" fill="#EFB87D"/>
<path d="M578.839 403.248C579.034 402.816 579.163 402.35 579.438 401.96C584.874 394.2 580.959 387.741 575.604 381.484C568.299 378.826 562.151 374.483 555.323 371.114C550.752 368.866 546.327 366.388 541.862 363.987C537.89 361.843 534.695 362.637 532.793 366.284C530.294 371.079 532.251 376.863 537.461 379.814C551.254 387.644 565.047 395.439 578.839 403.248Z" fill="#EFB87D"/>
<path d="M609.435 373.162C608.756 379.711 608.295 386.268 609.403 392.824C609.735 386.268 609.872 379.718 609.435 373.162Z" fill="#FDD097"/>
<rect width="105.356" height="22.4161" transform="matrix(-1 0 0 1 545.32 540.854)" fill="white"/>
<path d="M597.003 310.232C594.398 307.873 591.235 307.358 587.991 308.812C584.844 310.218 582.312 312.271 582.077 315.682C581.551 323.616 581.001 331.55 580.443 339.484C580.403 340.111 580.799 341.036 579.723 341.21C578.841 341.356 578.469 340.612 578.024 340.013C574.311 335.023 570.485 330.088 566.845 325.056C566.116 324.047 565.413 323.142 564.256 322.509C559.904 323.929 559.006 323.504 558.027 319.489C560.017 319.426 561.109 321.841 563.35 320.901C561.23 316.607 557.986 314.464 554.362 314.972C550.293 315.542 546.815 319.725 546.426 323.852C546.135 326.956 547.551 329.448 549.177 331.954C553.667 338.851 558.189 345.727 562.67 352.624C563.051 353.202 563.228 353.877 563.504 354.511C562.468 356.724 564.232 358.311 565.397 359.87C568.171 363.607 569.482 367.331 566.95 371.576C566.084 373.024 565.85 374.673 566.739 376.274C565.955 380.206 564.175 383.853 562.395 388.001C561.497 386.129 560.915 384.758 560.883 383.171C560.81 379.872 558.609 378.188 555.074 377.019C542.794 372.954 530.627 368.653 518.428 364.408C516.908 363.879 515.427 363.489 513.793 363.774C513.631 365.152 515.451 365.799 515.662 367.198C511.318 367.539 510.509 364.95 509.675 362.389C506.043 362.883 503.819 364.839 503.738 367.839C503.624 372.21 504.862 376.044 510.347 378.139C516.543 380.506 522.376 383.568 528.516 386.053C531.242 387.152 531.436 388.837 531.056 390.827C529.236 400.293 527.206 409.73 525.539 419.216C524.989 422.341 521.422 421.277 519.933 422.898C509.489 426.406 500.486 431.89 492.501 438.481C477.972 450.473 468.742 464.734 466.971 482.447C466.267 489.504 467.44 496.471 466.542 503.514C465.409 512.465 464.714 521.464 463.46 530.407C463.104 532.941 463.152 535.488 462.788 538.021C462.602 539.33 463.144 540.541 464.592 541.299C465.822 541.905 467.189 541.856 468.524 541.863C485.827 541.94 503.131 541.947 520.443 541.856C522.497 541.842 524.908 542.156 525.741 539.74C523.525 530.512 521.284 521.283 519.1 512.047C518.809 510.801 518.938 509.688 519.933 508.491C532.941 492.81 545.844 477.067 558.787 461.358C563.617 455.498 568.454 449.638 573.397 443.847C574.158 442.964 574.975 442.177 574.675 441.091C572.904 434.605 577.151 429.148 579.019 423.365C582.87 411.449 587.497 399.715 591.841 387.918C593.945 382.19 595.991 376.413 598.362 370.741C599.203 368.73 599.211 367.24 597.31 365.848C596.889 359.292 596.849 352.743 597.342 346.187C597.326 336.624 597.019 319.802 597.003 310.232Z" fill="#FDD097"/>
<path d="M563.36 320.908C561.944 320.393 560.989 319.447 560.188 318.361C559.363 317.247 558.376 316.642 556.912 317.602C555.747 318.368 554.987 319.315 555.909 320.546C557.066 322.085 557.996 324.04 559.663 324.938C562.235 326.323 563.521 324.472 564.266 322.509C563.958 321.98 563.659 321.444 563.36 320.908Z" fill="#FDD097"/>
<path d="M509.673 362.403C508.75 363.697 507.577 365.173 509.074 366.488C510.959 368.144 513.539 369.056 516.177 369.397C517.285 369.536 517.52 368.117 517.932 367.295C518.385 366.398 517.859 365.743 516.953 365.291C515.91 364.776 514.85 364.282 513.798 363.781C512.739 362.625 511.444 361.985 509.673 362.403Z" fill="#FDD097"/>
<path fill-rule="evenodd" clip-rule="evenodd" d="M557 651.316C518.961 677.235 475.648 695.986 429 705.623V560H557V651.316Z" fill="#FE6500"/>
<path fill-rule="evenodd" clip-rule="evenodd" d="M193.096 293.211L409.898 211.946L441.611 296.552L441.566 296.569C449.276 322.126 408.888 360.08 350.056 382.132C291.223 404.185 235.839 402.129 224.85 377.801L224.809 377.817L224.416 376.769C224.38 376.678 224.345 376.587 224.311 376.496C224.277 376.404 224.243 376.313 224.21 376.221L193.096 293.211Z" fill="#FE6500"/>
<path d="M93.7842 308.253L85.2643 307.988L91.5117 302.189L255.867 149.627L256.91 148.659L258.334 148.694L486.162 154.252L494.846 154.464L488.441 160.332L320.405 314.291L319.355 315.253L317.932 315.208L93.7842 308.253Z" fill="#FFC09B" stroke="#FE6500" stroke-width="7"/>
<rect width="7.9456" height="108.06" transform="matrix(-0.936381 0.350985 0.350985 0.936381 116.383 297.501)" fill="#FE6500"/>
<path d="M154.678 408.733L160.177 513.588L219.456 491.368L154.678 408.733Z" fill="#FFC09B"/>
<circle r="19.4563" transform="matrix(-0.936381 0.350985 0.350985 0.936381 157.048 416.047)" fill="#FE6500"/>
</svg>
